<?xml version="1.0" encoding="utf-8"?>
<!-- Generator: Adobe Illustrator 24.0.0, SVG Export Plug-In . SVG Version: 6.00 Build 0)  -->
<svg version="1.1" id="Capa_1" xmlns="http://www.w3.org/2000/svg" xmlns:xlink="http://www.w3.org/1999/xlink" x="0px" y="0px"
	 viewBox="0 0 147.05 147.05" style="enable-background:new 0 0 147.05 147.05;" xml:space="preserve">
<style type="text/css">
	.st0{fill:#757575;}
	.st1{fill:#FFFFFF;}
	.st2{display:none;}
	.st3{display:inline;fill:none;}
	.st4{display:inline;fill:#757575;}
</style>
<g>
	<path class="st0" d="M105.28,61.17c4.32-13.17,10.21-31.21-1.94-38.88c-4.39-2.77-8.6-4.13-12.86-4.13
		c-4.63,0-8.47,1.63-11.56,2.94c-2.2,0.93-4.09,1.74-5.66,1.74c-1.57,0-3.47-0.81-5.67-1.74c-3.09-1.31-6.94-2.94-11.55-2.94
		c-4.26,0-8.47,1.35-12.87,4.13C31,29.96,36.9,48,41.21,61.17c1.52,4.63,2.83,8.62,3.06,11.23c0.38,4.13-0.02,9.13-0.44,14.44
		c-0.61,7.79-1.26,15.85,0.5,22.26c2.94,10.8,12.42,18.72,12.82,19.06c0.31,0.26,0.69,0.39,1.06,0.39c0.29,0,0.59-0.08,0.85-0.23
		c0.61-0.36,0.92-1.06,0.79-1.74c-0.03-0.2-3.64-19.65,0.88-32.07c3.75-10.33,10.15-15.74,12.53-15.74c2.38,0,8.77,5.4,12.53,15.74
		c4.5,12.42,0.91,31.88,0.86,32.07c-0.12,0.69,0.19,1.39,0.79,1.74c0.61,0.35,1.37,0.3,1.91-0.16c0.4-0.33,9.89-8.26,12.83-19.06
		c1.74-6.42,1.11-14.47,0.49-22.27c-0.41-5.29-0.81-10.3-0.43-14.43C102.46,69.8,103.77,65.8,105.28,61.17z"/>
	<polygon class="st1" points="52.59,25.01 55.57,30.46 61.02,33.44 55.57,36.42 52.59,41.87 49.61,36.42 44.16,33.44 49.61,30.46 	
		"/>
	<polygon class="st1" points="64.3,41.04 65.91,43.98 68.85,45.59 65.91,47.2 64.3,50.14 62.69,47.2 59.75,45.59 62.69,43.98 	"/>
	<polygon class="st1" points="50.43,47.81 52.03,50.75 54.97,52.36 52.03,53.97 50.43,56.91 48.82,53.97 45.88,52.36 48.82,50.75 	
		"/>
</g>
<g class="st2">
	<path class="st3" d="M101.56,27.48c-3.85-2.43-7.48-3.61-11.09-3.61c-3.95,0-7.3,1.42-10.26,2.68c-2.43,1.03-4.72,2-6.97,2
		c-2.24,0-4.54-0.97-6.97-2c-2.96-1.25-6.31-2.68-10.26-2.68c-3.61,0-7.24,1.18-11.09,3.61c-9.96,6.28-4.52,22.89-0.55,35.02
		c0.37,1.14,0.73,2.25,1.07,3.31h55.59c0.34-1.06,0.7-2.17,1.07-3.31C106.08,50.37,111.52,33.76,101.56,27.48z"/>
	<path class="st4" d="M103.34,24.66c-4.4-2.78-8.61-4.12-12.87-4.12c-4.62,0-8.47,1.63-11.56,2.94c-2.2,0.93-4.1,1.74-5.67,1.74
		c-1.57,0-3.47-0.81-5.67-1.74c-3.09-1.31-6.93-2.94-11.56-2.94c-4.26,0-8.47,1.35-12.87,4.12C31,32.33,36.9,50.37,41.21,63.54
		c0.25,0.78,0.5,1.53,0.74,2.27h-0.33v21.92h26.22v4.72H49.38V98h18.45v3.88H53.88v5.55h13.96v3.88h-8.42v5.55h8.42v3.88h-2.54v5.55
		H81.2v-5.55h-2.54v-3.88h8.42v-5.55h-8.42v-3.88h13.96v-5.55H78.65V98H97.1v-5.55H78.65v-4.72h26.22V65.81h-0.33
		c0.24-0.74,0.48-1.5,0.74-2.28C109.59,50.37,115.49,32.33,103.34,24.66z M102.11,62.5c-0.37,1.14-0.73,2.25-1.07,3.31H45.45
		c-0.34-1.06-0.7-2.17-1.07-3.31c-3.97-12.13-9.4-28.74,0.55-35.02c3.85-2.43,7.48-3.61,11.09-3.61c3.94,0,7.3,1.42,10.26,2.68
		c2.43,1.03,4.72,2,6.97,2c2.24,0,4.54-0.97,6.97-2c2.96-1.25,6.31-2.68,10.26-2.68c3.61,0,7.24,1.18,11.09,3.61
		C111.52,33.76,106.08,50.37,102.11,62.5z"/>
</g>
</svg>
