<?xml version="1.0" encoding="utf-8"?>
<!-- Generator: Adobe Illustrator 24.0.0, SVG Export Plug-In . SVG Version: 6.00 Build 0)  -->
<svg version="1.1" id="Capa_1" xmlns="http://www.w3.org/2000/svg" xmlns:xlink="http://www.w3.org/1999/xlink" x="0px" y="0px"
	 viewBox="0 0 147.05 147.05" style="enable-background:new 0 0 147.05 147.05;" xml:space="preserve">
<style type="text/css">
	.st0{display:none;}
	.st1{display:inline;fill:#757575;}
	.st2{display:inline;fill:#FFFFFF;}
	.st3{display:inline;fill:none;}
	.st4{display:inline;}
	.st5{fill:#757575;}
	.st6{fill:#767676;}
	.st7{display:inline;fill:#757575;stroke:#D9D9D9;stroke-width:0.5;stroke-linecap:round;stroke-linejoin:round;}
	.st8{display:none;fill:#757575;}
	.st9{fill:#FFFFFF;}
	.st10{fill:#757575;stroke:#FFFFFF;stroke-width:0.75;stroke-miterlimit:10;}
	.st11{display:none;fill:none;stroke:#F08027;stroke-width:0.7852;stroke-miterlimit:10;}
</style>
<g class="st0">
	<path class="st1" d="M105.28,61.17c4.32-13.17,10.21-31.21-1.94-38.88c-4.39-2.77-8.6-4.13-12.86-4.13
		c-4.63,0-8.47,1.63-11.56,2.94c-2.2,0.93-4.09,1.74-5.66,1.74c-1.57,0-3.47-0.81-5.67-1.74c-3.09-1.31-6.94-2.94-11.55-2.94
		c-4.26,0-8.47,1.35-12.87,4.13C31,29.96,36.9,48,41.21,61.17c1.52,4.63,2.83,8.62,3.06,11.23c0.38,4.13-0.02,9.13-0.44,14.44
		c-0.61,7.79-1.26,15.85,0.5,22.26c2.94,10.8,12.42,18.72,12.82,19.06c0.31,0.26,0.69,0.39,1.06,0.39c0.29,0,0.59-0.08,0.85-0.23
		c0.61-0.36,0.92-1.06,0.79-1.74c-0.03-0.2-3.64-19.65,0.88-32.07c3.75-10.33,10.15-15.74,12.53-15.74c2.38,0,8.77,5.4,12.53,15.74
		c4.5,12.42,0.91,31.88,0.86,32.07c-0.12,0.69,0.19,1.39,0.79,1.74c0.61,0.35,1.37,0.3,1.91-0.16c0.4-0.33,9.89-8.26,12.83-19.06
		c1.74-6.42,1.11-14.47,0.49-22.27c-0.41-5.29-0.81-10.3-0.43-14.43C102.46,69.8,103.77,65.8,105.28,61.17z"/>
	<polygon class="st2" points="52.59,25.01 55.57,30.46 61.02,33.44 55.57,36.42 52.59,41.87 49.61,36.42 44.16,33.44 49.61,30.46 	
		"/>
	<polygon class="st2" points="64.3,41.04 65.91,43.98 68.85,45.59 65.91,47.2 64.3,50.14 62.69,47.2 59.75,45.59 62.69,43.98 	"/>
	<polygon class="st2" points="50.43,47.81 52.03,50.75 54.97,52.36 52.03,53.97 50.43,56.91 48.82,53.97 45.88,52.36 48.82,50.75 	
		"/>
</g>
<g class="st0">
	<path class="st3" d="M101.56,27.48c-3.85-2.43-7.48-3.61-11.09-3.61c-3.95,0-7.3,1.42-10.26,2.68c-2.43,1.03-4.72,2-6.97,2
		c-2.24,0-4.54-0.97-6.97-2c-2.96-1.25-6.31-2.68-10.26-2.68c-3.61,0-7.24,1.18-11.09,3.61c-9.96,6.28-4.52,22.89-0.55,35.02
		c0.37,1.14,0.73,2.25,1.07,3.31h55.59c0.34-1.06,0.7-2.17,1.07-3.31C106.08,50.37,111.52,33.76,101.56,27.48z"/>
	<path class="st1" d="M103.34,24.66c-4.4-2.78-8.61-4.12-12.87-4.12c-4.62,0-8.47,1.63-11.56,2.94c-2.2,0.93-4.1,1.74-5.67,1.74
		c-1.57,0-3.47-0.81-5.67-1.74c-3.09-1.31-6.93-2.94-11.56-2.94c-4.26,0-8.47,1.35-12.87,4.12C31,32.33,36.9,50.37,41.21,63.54
		c0.25,0.78,0.5,1.53,0.74,2.27h-0.33v21.92h26.22v4.72H49.38V98h18.45v3.88H53.88v5.55h13.96v3.88h-8.42v5.55h8.42v3.88h-2.54v5.55
		H81.2v-5.55h-2.54v-3.88h8.42v-5.55h-8.42v-3.88h13.96v-5.55H78.65V98H97.1v-5.55H78.65v-4.72h26.22V65.81h-0.33
		c0.24-0.74,0.48-1.5,0.74-2.28C109.59,50.37,115.49,32.33,103.34,24.66z M102.11,62.5c-0.37,1.14-0.73,2.25-1.07,3.31H45.45
		c-0.34-1.06-0.7-2.17-1.07-3.31c-3.97-12.13-9.4-28.74,0.55-35.02c3.85-2.43,7.48-3.61,11.09-3.61c3.94,0,7.3,1.42,10.26,2.68
		c2.43,1.03,4.72,2,6.97,2c2.24,0,4.54-0.97,6.97-2c2.96-1.25,6.31-2.68,10.26-2.68c3.61,0,7.24,1.18,11.09,3.61
		C111.52,33.76,106.08,50.37,102.11,62.5z"/>
</g>
<g class="st0">
	<g class="st4">
		<g>
			<g>
				<path class="st5" d="M72.31,54.79c24.51,0,67.62,4.9,73.75,4.04c-3.41-1.1-10.92-3.77-19.03-8.23
					c-11.03-6.07-20.96-11.59-32.55-11.03c-10.78,0.51-19.64,7.71-20.83,8.71c-1.18-1-10.05-8.19-20.83-8.71
					c-11.58-0.55-21.51,4.96-32.55,11.03c-8.84,4.86-16.97,7.6-19.85,8.49C8.33,60.17,47.79,54.79,72.31,54.79z"/>
			</g>
			<g>
				<path class="st5" d="M140.84,62.73c-4.65,1.87-28.98,28.77-67.47,28.77c-38.48,0-61.53-25.65-68-28.23
					c1.08,1.61,18.02,44.55,68.08,44.55c50.06,0,68.62-44.73,68.62-44.73S141.63,62.98,140.84,62.73z"/>
			</g>
		</g>
		<g>
			<path class="st5" d="M9.69,67.69c0,0,33.55,4.44,72.83,3.05"/>
			<path class="st5" d="M9.69,67.69l18.21,1.01c6.06,0.31,12.13,0.63,18.19,0.86c6.06,0.27,12.13,0.47,18.2,0.65l18.23,0.53
				c-6.06,0.56-12.15,0.96-18.24,1.03c-3.05,0.1-6.09,0.03-9.14,0.04c-3.05-0.06-6.09-0.13-9.13-0.26
				c-6.09-0.27-12.17-0.68-18.23-1.31C21.72,69.64,15.67,68.82,9.69,67.69z"/>
		</g>
	</g>
	<g class="st4">
		<g>
			<rect x="23.58" y="60.52" class="st6" width="4.99" height="4.99"/>
		</g>
		<g>
			<rect x="39.3" y="60.52" class="st6" width="5" height="4.99"/>
		</g>
		<g>
			<rect x="55.03" y="60.52" class="st6" width="4.99" height="4.99"/>
		</g>
		<g>
			<rect x="70.75" y="60.52" class="st6" width="4.99" height="4.99"/>
		</g>
		<g>
			<rect x="86.47" y="60.52" class="st6" width="4.99" height="4.99"/>
		</g>
		<g>
			<rect x="102.19" y="60.52" class="st6" width="4.99" height="4.99"/>
		</g>
		<g>
			<rect x="117.91" y="60.52" class="st6" width="4.99" height="4.99"/>
		</g>
	</g>
	<g class="st4">
		<rect x="10.72" y="62.55" class="st5" width="125.04" height="0.92"/>
	</g>
</g>
<g class="st0">
	<path class="st7" d="M110.02,35.74c-0.31-5.49-2.27-10.28-7.19-13.39c-4.39-2.77-8.6-4.13-12.86-4.13c-4.63,0-8.47,1.63-11.56,2.94
		c-2.2,0.93-4.09,1.74-5.66,1.74c-1.57,0-3.47-0.81-5.67-1.74c-3.09-1.31-6.94-2.94-11.55-2.94c-4.26,0-8.47,1.35-12.87,4.13
		c-12.15,7.67-6.25,25.7-1.94,38.88c1.52,4.63,2.83,8.62,3.06,11.23c0.38,4.13-0.02,9.13-0.44,14.44
		c-0.61,7.79-1.26,15.85,0.5,22.26c2.94,10.8,12.42,18.72,12.82,19.06c0.31,0.26,0.69,0.39,1.06,0.39c0.29,0,0.59-0.08,0.85-0.23
		c0.61-0.36,0.92-1.06,0.79-1.74c-0.03-0.2-3.64-19.65,0.88-32.07c3.75-10.33,10.15-15.74,12.53-15.74c2.38,0,8.77,5.4,12.53,15.74
		c4.5,12.42,0.91,31.88,0.86,32.07c-0.12,0.69,0.19,1.39,0.79,1.74c0.61,0.35,1.37,0.3,1.91-0.16c0.4-0.33,9.89-8.26,12.83-19.06
		c1.74-6.42,1.11-14.47,0.49-22.27c-0.41-5.29-0.81-10.3-0.43-14.43c0.04-0.5,0.14-1.07,0.26-1.66"/>
	<path class="st7" d="M88.04,50.07c-0.36-0.37-0.72-0.71-1.1-1.03"/>
	<path class="st7" d="M88.83,59.28c-2.5,6.94-9.13,11.93-16.92,11.93c-9.92,0-18-8.07-18-18c0-7.18,4.22-13.38,10.31-16.27
		c-2.3-4.15-7.09-1.71-7.96,3.06c-1.88,10.25-8.19,9.88-11.24,8.25c-3.58-1.91-3.86-4.7-3.86-4.7c2.09,2.05,6.66,1.2,6.38-4.04
		c-0.42-7.86,4.97-15.15,13.71-12.78c6.46,1.75,7.41,6.43,7.47,8.78c1.04-0.19,2.1-0.29,3.19-0.29c7.79,0,14.42,4.99,16.92,11.93"/>
	<path class="st7" d="M86.94,49.04c-7.74-6.55-19.8-3.9-19.8-3.9l-0.8-3.64l-1.18,3.91c-5.1,0.62-7.33,2.33-8.19,3.27
		c-0.44,1.44-0.68,2.96-0.68,4.54c0,8.61,7,15.61,15.61,15.61c8.61,0,15.61-7,15.61-15.61C87.51,51.76,87.31,50.37,86.94,49.04"/>
	<path class="st7" d="M80.78,57.98H63.03c0.72,4.12,4.42,7.49,8.87,7.49C76.36,65.47,80.06,62.1,80.78,57.98z"/>
	<path class="st7" d="M68.43,51.39c0-1.15-0.93-2.08-2.08-2.08s-2.08,0.93-2.08,2.08c0,1.15,0.93,2.08,2.08,2.08
		S68.43,52.54,68.43,51.39z"/>
	<path class="st7" d="M79.71,51.39c0-1.15-0.93-2.08-2.08-2.08s-2.08,0.93-2.08,2.08c0,1.15,0.93,2.08,2.08,2.08
		S79.71,52.54,79.71,51.39z"/>
	<path class="st7" d="M105.83,57.98c1.7-5.31,3.41-11.16,4.01-16.68"/>
	<path class="st7" d="M102.53,68.48c0.28-1.02,0.61-2.13,0.98-3.31"/>
	<path class="st7" d="M110.02,35.74c0.24,0.06,0.48,0.11,0.72,0.18c1.91-3.05-0.41-5.93-0.41-5.93c2.7,1.61,3.01,3.93,2.8,5.57
		c0.71-0.49,1.77-0.86,3.26-0.43c0,0-1.83,0.66-2.49,2.04c5.84,2.98,9.85,9.05,9.85,16.04c0,9.92-8.07,18-18,18
		c-1.29,0-2.55-0.14-3.77-0.4"/>
	<path class="st7" d="M121.21,51.12c0.41,0.21,0.83,0.4,1.27,0.57"/>
	<path class="st7" d="M121.21,51.12c0.09,0.68,0.14,1.38,0.14,2.09c0,8.61-7,15.61-15.61,15.61c-1.1,0-2.18-0.12-3.22-0.34"/>
	<path class="st7" d="M121.21,51.12c-6.51-3.33-9.74-11.58-9.74-11.58c-0.49,0.63-1.05,1.21-1.63,1.76"/>
	<path class="st7" d="M88.83,59.28c2.08,5.79,7.04,10.22,13.15,11.53"/>
	<path class="st7" d="M88.83,47.14c2.5-6.94,9.13-11.93,16.92-11.93c1.47,0,2.9,0.19,4.27,0.53"/>
	<path class="st7" d="M109.84,41.3c-5.76,5.46-15.66,7.61-19.26,8.23c-0.29,1.18-0.44,2.41-0.44,3.68c0,7.5,5.32,13.79,12.39,15.27"
		/>
	<path class="st7" d="M101.98,70.8c0.14-0.71,0.33-1.49,0.55-2.32"/>
	<path class="st7" d="M109.84,41.3c0.21-1.9,0.28-3.77,0.18-5.56"/>
	<path class="st7" d="M88.35,50.39c-0.1-0.11-0.21-0.21-0.31-0.32"/>
	<path class="st7" d="M88.83,59.28c-0.68-1.9-1.08-3.94-1.08-6.07c0-1.07,0.11-2.12,0.29-3.14"/>
	<path class="st7" d="M88.04,50.07c0.18-1.01,0.44-1.99,0.78-2.93"/>
	<path class="st7" d="M88.83,59.28c0.68-1.9,1.08-3.94,1.08-6.07s-0.39-4.17-1.08-6.07"/>
	<path class="st7" d="M105.83,57.98h8.79c-0.72,4.12-4.42,7.49-8.87,7.49c-0.77,0-1.52-0.11-2.24-0.3"/>
	<path class="st7" d="M105.83,57.98h-8.96c0.6,3.41,3.23,6.29,6.63,7.19"/>
	<path class="st7" d="M105.83,57.98c-0.36,1.11-0.71,2.2-1.06,3.25c-0.45,1.38-0.88,2.69-1.27,3.94"/>
	<path class="st7" d="M102.19,51.39c0-1.15-0.93-2.08-2.08-2.08s-2.08,0.93-2.08,2.08c0,1.15,0.93,2.08,2.08,2.08
		S102.19,52.54,102.19,51.39z"/>
	<path class="st7" d="M109.3,51.39c0,1.15,0.93,2.08,2.08,2.08c1.15,0,2.08-0.93,2.08-2.08c0-1.15-0.93-2.08-2.08-2.08
		C110.24,49.3,109.3,50.24,109.3,51.39z"/>
</g>
<g>
	<path class="st5" d="M104.84,61.55c4.32-13.17,10.21-31.21-1.94-38.88c-4.39-2.77-8.6-4.13-12.86-4.13
		c-4.63,0-8.47,1.63-11.56,2.94c-2.2,0.93-4.09,1.74-5.66,1.74c-1.57,0-3.47-0.81-5.67-1.74c-3.09-1.31-6.94-2.94-11.55-2.94
		c-4.26,0-8.47,1.35-12.87,4.13c-12.15,7.67-6.25,25.7-1.94,38.88c1.52,4.63,2.83,8.62,3.06,11.23c0.38,4.13-0.02,9.13-0.44,14.44
		c-0.61,7.79-1.26,15.85,0.5,22.26c2.94,10.8,12.42,18.72,12.82,19.06c0.31,0.26,0.69,0.39,1.06,0.39c0.29,0,0.59-0.08,0.85-0.23
		c0.61-0.36,0.92-1.06,0.79-1.74c-0.03-0.2-3.64-19.65,0.88-32.07c3.75-10.33,10.15-15.74,12.53-15.74c2.38,0,8.77,5.4,12.53,15.74
		c4.5,12.42,0.91,31.88,0.86,32.07c-0.12,0.69,0.19,1.39,0.79,1.74c0.61,0.35,1.37,0.3,1.91-0.16c0.4-0.33,9.89-8.26,12.83-19.06
		c1.74-6.42,1.11-14.47,0.49-22.27c-0.41-5.29-0.81-10.3-0.43-14.43C102.02,70.17,103.33,66.17,104.84,61.55z"/>
	<polygon class="st8" points="52.15,25.38 55.13,30.83 60.58,33.81 55.13,36.79 52.15,42.24 49.17,36.79 43.72,33.81 49.17,30.83 	
		"/>
	<polygon class="st8" points="63.86,41.41 65.47,44.35 68.41,45.96 65.47,47.57 63.86,50.51 62.25,47.57 59.31,45.96 62.25,44.35 	
		"/>
	<polygon class="st8" points="49.99,48.19 51.6,51.13 54.53,52.73 51.6,54.34 49.99,57.28 48.38,54.34 45.44,52.73 48.38,51.13 	"/>
</g>
<g>
	<g>
		<path class="st9" d="M87.12,47.55l-0.8-3.66l-1.19,3.92c-5.12,0.62-7.36,2.34-8.22,3.28c-0.44,1.44-0.68,2.97-0.68,4.56
			c0,8.64,7.03,15.67,15.67,15.67s15.67-7.03,15.67-15.67c0-1.45-0.2-2.85-0.57-4.19C99.23,44.89,87.12,47.55,87.12,47.55z
			 M86.32,51.73c1.16,0,2.09,0.94,2.09,2.09c0,1.16-0.94,2.09-2.09,2.09c-1.16,0-2.09-0.94-2.09-2.09
			C84.23,52.67,85.16,51.73,86.32,51.73z M91.9,67.96c-4.47,0-8.18-3.38-8.91-7.52h17.82C100.08,64.58,96.37,67.96,91.9,67.96z
			 M97.65,51.73c1.16,0,2.09,0.94,2.09,2.09c0,1.16-0.94,2.09-2.09,2.09c-1.16,0-2.09-0.94-2.09-2.09
			C95.55,52.67,96.49,51.73,97.65,51.73z"/>
		<path class="st10" d="M91.9,37.59c-1.09,0-2.16,0.1-3.2,0.29c-0.06-2.36-1.01-7.06-7.5-8.81c-8.78-2.38-14.19,4.94-13.76,12.83
			c0.28,5.26-4.3,6.11-6.4,4.06c0,0,0.28,2.8,3.87,4.72c3.06,1.64,9.39,2.01,11.28-8.28c0.88-4.79,5.69-7.24,8-3.07
			c-6.11,2.9-10.35,9.13-10.35,16.33c0,9.96,8.1,18.07,18.07,18.07s18.07-8.1,18.07-18.07S101.86,37.59,91.9,37.59z M107.57,55.65
			c0,8.64-7.03,15.67-15.67,15.67s-15.67-7.03-15.67-15.67c0-1.59,0.24-3.12,0.68-4.56c0.86-0.94,3.1-2.66,8.22-3.28l1.19-3.92
			l0.8,3.66c0,0,12.11-2.66,19.88,3.92c0.49,0.41,0.96,0.86,1.41,1.36c-0.45-0.49-0.92-0.94-1.41-1.36
			C107.37,52.8,107.57,54.2,107.57,55.65z"/>
		<path class="st11" d="M91.9,67.96c4.47,0,8.18-3.38,8.91-7.52H82.99C83.72,64.58,87.43,67.96,91.9,67.96z"/>
		<circle class="st5" cx="86.32" cy="53.82" r="2.09"/>
		<circle class="st5" cx="97.65" cy="53.82" r="2.09"/>
	</g>
	<g>
		<path class="st9" d="M111.62,70.93c-5.31,6.81-17,9.34-20.97,10.03c-0.29,1.19-0.44,2.42-0.44,3.69c0,8.64,7.03,15.67,15.67,15.67
			c8.64,0,15.67-7.03,15.67-15.67c0-0.71-0.05-1.41-0.14-2.1C114.87,79.21,111.62,70.93,111.62,70.93z M111.54,80.73
			c1.16,0,2.09,0.94,2.09,2.09c0,1.16-0.94,2.09-2.09,2.09s-2.09-0.94-2.09-2.09C109.45,81.67,110.38,80.73,111.54,80.73z
			 M100.21,80.73c1.16,0,2.09,0.94,2.09,2.09c0,1.16-0.94,2.09-2.09,2.09c-1.16,0-2.09-0.94-2.09-2.09
			C98.12,81.67,99.06,80.73,100.21,80.73z M105.88,96.96c-4.47,0-8.18-3.38-8.91-7.52h17.82C114.06,93.58,110.35,96.96,105.88,96.96
			z"/>
		<path class="st5" d="M114.05,68.55c0.66-1.38,2.5-2.05,2.5-2.05c-1.49-0.43-2.56-0.05-3.27,0.44c0.21-1.65-0.1-3.97-2.81-5.59
			c0,0,2.33,2.89,0.41,5.95c-1.59-0.46-3.27-0.71-5.01-0.71c-9.96,0-18.07,8.1-18.07,18.07s8.1,18.07,18.07,18.07
			c9.96,0,18.07-8.1,18.07-18.07C123.94,77.63,119.92,71.54,114.05,68.55z M105.88,100.32c-8.64,0-15.67-7.03-15.67-15.67
			c0-1.27,0.16-2.51,0.44-3.69c3.98-0.68,15.66-3.22,20.97-10.03c0,0,3.25,8.29,9.78,11.63c0.41,0.21,0.84,0.4,1.27,0.57
			c-0.44-0.17-0.86-0.36-1.27-0.57c0.09,0.69,0.14,1.39,0.14,2.1C121.55,93.29,114.52,100.32,105.88,100.32z"/>
		<path class="st5" d="M105.88,96.96c4.47,0,8.18-3.38,8.91-7.52H96.97C97.69,93.58,101.4,96.96,105.88,96.96z"/>
		<circle class="st5" cx="100.21" cy="82.82" r="2.09"/>
		<circle class="st5" cx="111.54" cy="82.82" r="2.09"/>
	</g>
</g>
</svg>
