<?xml version="1.0" encoding="utf-8"?>
<!-- Generator: Adobe Illustrator 24.0.0, SVG Export Plug-In . SVG Version: 6.00 Build 0)  -->
<svg version="1.1" xmlns="http://www.w3.org/2000/svg" xmlns:xlink="http://www.w3.org/1999/xlink" x="0px" y="0px"
	 viewBox="0 0 147.05 147.05" style="enable-background:new 0 0 147.05 147.05;" xml:space="preserve">
<style type="text/css">
	.st0{display:none;}
	.st1{display:inline;fill:#757575;}
	.st2{display:inline;fill:#FFFFFF;}
	.st3{display:inline;fill:none;}
	.st4{display:inline;}
	.st5{fill:#757575;}
	.st6{fill:#767676;}
	.st7{display:inline;fill:#757575;stroke:#D9D9D9;stroke-width:0.5;stroke-linecap:round;stroke-linejoin:round;}
	.st8{fill:#FFFFFF;}
	.st9{fill:#757575;stroke:#FFFFFF;stroke-width:0.75;stroke-miterlimit:10;}
	.st10{display:none;fill:none;stroke:#F08027;stroke-width:0.7852;stroke-miterlimit:10;}
	.st11{display:inline;fill:#EAD1B8;}
	.st12{fill:none;}
	.st13{display:inline;fill:#D9D9D9;}
	.st14{display:inline;fill:#F9F7F4;}
	.st15{display:inline;fill:#EFEAE1;}
</style>
<g id="Capa_1">
	<g class="st0">
		<path class="st1" d="M105.28,61.17c4.32-13.17,10.21-31.21-1.94-38.88c-4.39-2.77-8.6-4.13-12.86-4.13
			c-4.63,0-8.47,1.63-11.56,2.94c-2.2,0.93-4.09,1.74-5.66,1.74c-1.57,0-3.47-0.81-5.67-1.74c-3.09-1.31-6.94-2.94-11.55-2.94
			c-4.26,0-8.47,1.35-12.87,4.13C31,29.96,36.9,48,41.21,61.17c1.52,4.63,2.83,8.62,3.06,11.23c0.38,4.13-0.02,9.13-0.44,14.44
			c-0.61,7.79-1.26,15.85,0.5,22.26c2.94,10.8,12.42,18.72,12.82,19.06c0.31,0.26,0.69,0.39,1.06,0.39c0.29,0,0.59-0.08,0.85-0.23
			c0.61-0.36,0.92-1.06,0.79-1.74c-0.03-0.2-3.64-19.65,0.88-32.07c3.75-10.33,10.15-15.74,12.53-15.74c2.38,0,8.77,5.4,12.53,15.74
			c4.5,12.42,0.91,31.88,0.86,32.07c-0.12,0.69,0.19,1.39,0.79,1.74c0.61,0.35,1.37,0.3,1.91-0.16c0.4-0.33,9.89-8.26,12.83-19.06
			c1.74-6.42,1.11-14.47,0.49-22.27c-0.41-5.29-0.81-10.3-0.43-14.43C102.46,69.8,103.77,65.8,105.28,61.17z"/>
		<polygon class="st2" points="52.59,25.01 55.57,30.46 61.02,33.44 55.57,36.42 52.59,41.87 49.61,36.42 44.16,33.44 49.61,30.46 
					"/>
		<polygon class="st2" points="64.3,41.04 65.91,43.98 68.85,45.59 65.91,47.2 64.3,50.14 62.69,47.2 59.75,45.59 62.69,43.98 		"/>
		<polygon class="st2" points="50.43,47.81 52.03,50.75 54.97,52.36 52.03,53.97 50.43,56.91 48.82,53.97 45.88,52.36 48.82,50.75 
					"/>
	</g>
	<g class="st0">
		<path class="st3" d="M101.56,27.48c-3.85-2.43-7.48-3.61-11.09-3.61c-3.95,0-7.3,1.42-10.26,2.68c-2.43,1.03-4.72,2-6.97,2
			c-2.24,0-4.54-0.97-6.97-2c-2.96-1.25-6.31-2.68-10.26-2.68c-3.61,0-7.24,1.18-11.09,3.61c-9.96,6.28-4.52,22.89-0.55,35.02
			c0.37,1.14,0.73,2.25,1.07,3.31h55.59c0.34-1.06,0.7-2.17,1.07-3.31C106.08,50.37,111.52,33.76,101.56,27.48z"/>
		<path class="st1" d="M103.34,24.66c-4.4-2.78-8.61-4.12-12.87-4.12c-4.62,0-8.47,1.63-11.56,2.94c-2.2,0.93-4.1,1.74-5.67,1.74
			c-1.57,0-3.47-0.81-5.67-1.74c-3.09-1.31-6.93-2.94-11.56-2.94c-4.26,0-8.47,1.35-12.87,4.12C31,32.33,36.9,50.37,41.21,63.54
			c0.25,0.78,0.5,1.53,0.74,2.27h-0.33v21.92h26.22v4.72H49.38V98h18.45v3.88H53.88v5.55h13.96v3.88h-8.42v5.55h8.42v3.88h-2.54
			v5.55H81.2v-5.55h-2.54v-3.88h8.42v-5.55h-8.42v-3.88h13.96v-5.55H78.65V98H97.1v-5.55H78.65v-4.72h26.22V65.81h-0.33
			c0.24-0.74,0.48-1.5,0.74-2.28C109.59,50.37,115.49,32.33,103.34,24.66z M102.11,62.5c-0.37,1.14-0.73,2.25-1.07,3.31H45.45
			c-0.34-1.06-0.7-2.17-1.07-3.31c-3.97-12.13-9.4-28.74,0.55-35.02c3.85-2.43,7.48-3.61,11.09-3.61c3.94,0,7.3,1.42,10.26,2.68
			c2.43,1.03,4.72,2,6.97,2c2.24,0,4.54-0.97,6.97-2c2.96-1.25,6.31-2.68,10.26-2.68c3.61,0,7.24,1.18,11.09,3.61
			C111.52,33.76,106.08,50.37,102.11,62.5z"/>
	</g>
	<g class="st0">
		<g class="st4">
			<g>
				<g>
					<path class="st5" d="M72.31,54.79c24.51,0,67.62,4.9,73.75,4.04c-3.41-1.1-10.92-3.77-19.03-8.23
						c-11.03-6.07-20.96-11.59-32.55-11.03c-10.78,0.51-19.64,7.71-20.83,8.71c-1.18-1-10.05-8.19-20.83-8.71
						c-11.58-0.55-21.51,4.96-32.55,11.03c-8.84,4.86-16.97,7.6-19.85,8.49C8.33,60.17,47.79,54.79,72.31,54.79z"/>
				</g>
				<g>
					<path class="st5" d="M140.84,62.73c-4.65,1.87-28.98,28.77-67.47,28.77c-38.48,0-61.53-25.65-68-28.23
						c1.08,1.61,18.02,44.55,68.08,44.55c50.06,0,68.62-44.73,68.62-44.73S141.63,62.98,140.84,62.73z"/>
				</g>
			</g>
			<g>
				<path class="st5" d="M9.69,67.69c0,0,33.55,4.44,72.83,3.05"/>
				<path class="st5" d="M9.69,67.69l18.21,1.01c6.06,0.31,12.13,0.63,18.19,0.86c6.06,0.27,12.13,0.47,18.2,0.65l18.23,0.53
					c-6.06,0.56-12.15,0.96-18.24,1.03c-3.05,0.1-6.09,0.03-9.14,0.04c-3.05-0.06-6.09-0.13-9.13-0.26
					c-6.09-0.27-12.17-0.68-18.23-1.31C21.72,69.64,15.67,68.82,9.69,67.69z"/>
			</g>
		</g>
		<g class="st4">
			<g>
				<rect x="23.58" y="60.52" class="st6" width="4.99" height="4.99"/>
			</g>
			<g>
				<rect x="39.3" y="60.52" class="st6" width="5" height="4.99"/>
			</g>
			<g>
				<rect x="55.03" y="60.52" class="st6" width="4.99" height="4.99"/>
			</g>
			<g>
				<rect x="70.75" y="60.52" class="st6" width="4.99" height="4.99"/>
			</g>
			<g>
				<rect x="86.47" y="60.52" class="st6" width="4.99" height="4.99"/>
			</g>
			<g>
				<rect x="102.19" y="60.52" class="st6" width="4.99" height="4.99"/>
			</g>
			<g>
				<rect x="117.91" y="60.52" class="st6" width="4.99" height="4.99"/>
			</g>
		</g>
		<g class="st4">
			<rect x="10.72" y="62.55" class="st5" width="125.04" height="0.92"/>
		</g>
	</g>
	<g class="st0">
		<path class="st7" d="M110.02,35.74c-0.31-5.49-2.27-10.28-7.19-13.39c-4.39-2.77-8.6-4.13-12.86-4.13
			c-4.63,0-8.47,1.63-11.56,2.94c-2.2,0.93-4.09,1.74-5.66,1.74c-1.57,0-3.47-0.81-5.67-1.74c-3.09-1.31-6.94-2.94-11.55-2.94
			c-4.26,0-8.47,1.35-12.87,4.13c-12.15,7.67-6.25,25.7-1.94,38.88c1.52,4.63,2.83,8.62,3.06,11.23c0.38,4.13-0.02,9.13-0.44,14.44
			c-0.61,7.79-1.26,15.85,0.5,22.26c2.94,10.8,12.42,18.72,12.82,19.06c0.31,0.26,0.69,0.39,1.06,0.39c0.29,0,0.59-0.08,0.85-0.23
			c0.61-0.36,0.92-1.06,0.79-1.74c-0.03-0.2-3.64-19.65,0.88-32.07c3.75-10.33,10.15-15.74,12.53-15.74c2.38,0,8.77,5.4,12.53,15.74
			c4.5,12.42,0.91,31.88,0.86,32.07c-0.12,0.69,0.19,1.39,0.79,1.74c0.61,0.35,1.37,0.3,1.91-0.16c0.4-0.33,9.89-8.26,12.83-19.06
			c1.74-6.42,1.11-14.47,0.49-22.27c-0.41-5.29-0.81-10.3-0.43-14.43c0.04-0.5,0.14-1.07,0.26-1.66"/>
		<path class="st7" d="M88.04,50.07c-0.36-0.37-0.72-0.71-1.1-1.03"/>
		<path class="st7" d="M88.83,59.28c-2.5,6.94-9.13,11.93-16.92,11.93c-9.92,0-18-8.07-18-18c0-7.18,4.22-13.38,10.31-16.27
			c-2.3-4.15-7.09-1.71-7.96,3.06c-1.88,10.25-8.19,9.88-11.24,8.25c-3.58-1.91-3.86-4.7-3.86-4.7c2.09,2.05,6.66,1.2,6.38-4.04
			c-0.42-7.86,4.97-15.15,13.71-12.78c6.46,1.75,7.41,6.43,7.47,8.78c1.04-0.19,2.1-0.29,3.19-0.29c7.79,0,14.42,4.99,16.92,11.93"
			/>
		<path class="st7" d="M86.94,49.04c-7.74-6.55-19.8-3.9-19.8-3.9l-0.8-3.64l-1.18,3.91c-5.1,0.62-7.33,2.33-8.19,3.27
			c-0.44,1.44-0.68,2.96-0.68,4.54c0,8.61,7,15.61,15.61,15.61c8.61,0,15.61-7,15.61-15.61C87.51,51.76,87.31,50.37,86.94,49.04"/>
		<path class="st7" d="M80.78,57.98H63.03c0.72,4.12,4.42,7.49,8.87,7.49C76.36,65.47,80.06,62.1,80.78,57.98z"/>
		<path class="st7" d="M68.43,51.39c0-1.15-0.93-2.08-2.08-2.08s-2.08,0.93-2.08,2.08c0,1.15,0.93,2.08,2.08,2.08
			S68.43,52.54,68.43,51.39z"/>
		<path class="st7" d="M79.71,51.39c0-1.15-0.93-2.08-2.08-2.08s-2.08,0.93-2.08,2.08c0,1.15,0.93,2.08,2.08,2.08
			S79.71,52.54,79.71,51.39z"/>
		<path class="st7" d="M105.83,57.98c1.7-5.31,3.41-11.16,4.01-16.68"/>
		<path class="st7" d="M102.53,68.48c0.28-1.02,0.61-2.13,0.98-3.31"/>
		<path class="st7" d="M110.02,35.74c0.24,0.06,0.48,0.11,0.72,0.18c1.91-3.05-0.41-5.93-0.41-5.93c2.7,1.61,3.01,3.93,2.8,5.57
			c0.71-0.49,1.77-0.86,3.26-0.43c0,0-1.83,0.66-2.49,2.04c5.84,2.98,9.85,9.05,9.85,16.04c0,9.92-8.07,18-18,18
			c-1.29,0-2.55-0.14-3.77-0.4"/>
		<path class="st7" d="M121.21,51.12c0.41,0.21,0.83,0.4,1.27,0.57"/>
		<path class="st7" d="M121.21,51.12c0.09,0.68,0.14,1.38,0.14,2.09c0,8.61-7,15.61-15.61,15.61c-1.1,0-2.18-0.12-3.22-0.34"/>
		<path class="st7" d="M121.21,51.12c-6.51-3.33-9.74-11.58-9.74-11.58c-0.49,0.63-1.05,1.21-1.63,1.76"/>
		<path class="st7" d="M88.83,59.28c2.08,5.79,7.04,10.22,13.15,11.53"/>
		<path class="st7" d="M88.83,47.14c2.5-6.94,9.13-11.93,16.92-11.93c1.47,0,2.9,0.19,4.27,0.53"/>
		<path class="st7" d="M109.84,41.3c-5.76,5.46-15.66,7.61-19.26,8.23c-0.29,1.18-0.44,2.41-0.44,3.68c0,7.5,5.32,13.79,12.39,15.27
			"/>
		<path class="st7" d="M101.98,70.8c0.14-0.71,0.33-1.49,0.55-2.32"/>
		<path class="st7" d="M109.84,41.3c0.21-1.9,0.28-3.77,0.18-5.56"/>
		<path class="st7" d="M88.35,50.39c-0.1-0.11-0.21-0.21-0.31-0.32"/>
		<path class="st7" d="M88.83,59.28c-0.68-1.9-1.08-3.94-1.08-6.07c0-1.07,0.11-2.12,0.29-3.14"/>
		<path class="st7" d="M88.04,50.07c0.18-1.01,0.44-1.99,0.78-2.93"/>
		<path class="st7" d="M88.83,59.28c0.68-1.9,1.08-3.94,1.08-6.07s-0.39-4.17-1.08-6.07"/>
		<path class="st7" d="M105.83,57.98h8.79c-0.72,4.12-4.42,7.49-8.87,7.49c-0.77,0-1.52-0.11-2.24-0.3"/>
		<path class="st7" d="M105.83,57.98h-8.96c0.6,3.41,3.23,6.29,6.63,7.19"/>
		<path class="st7" d="M105.83,57.98c-0.36,1.11-0.71,2.2-1.06,3.25c-0.45,1.38-0.88,2.69-1.27,3.94"/>
		<path class="st7" d="M102.19,51.39c0-1.15-0.93-2.08-2.08-2.08s-2.08,0.93-2.08,2.08c0,1.15,0.93,2.08,2.08,2.08
			S102.19,52.54,102.19,51.39z"/>
		<path class="st7" d="M109.3,51.39c0,1.15,0.93,2.08,2.08,2.08c1.15,0,2.08-0.93,2.08-2.08c0-1.15-0.93-2.08-2.08-2.08
			C110.24,49.3,109.3,50.24,109.3,51.39z"/>
	</g>
	<g class="st0">
		<path class="st1" d="M104.84,61.55c4.32-13.17,10.21-31.21-1.94-38.88c-4.39-2.77-8.6-4.13-12.86-4.13
			c-4.63,0-8.47,1.63-11.56,2.94c-2.2,0.93-4.09,1.74-5.66,1.74c-1.57,0-3.47-0.81-5.67-1.74c-3.09-1.31-6.94-2.94-11.55-2.94
			c-4.26,0-8.47,1.35-12.87,4.13c-12.15,7.67-6.25,25.7-1.94,38.88c1.52,4.63,2.83,8.62,3.06,11.23c0.38,4.13-0.02,9.13-0.44,14.44
			c-0.61,7.79-1.26,15.85,0.5,22.26c2.94,10.8,12.42,18.72,12.82,19.06c0.31,0.26,0.69,0.39,1.06,0.39c0.29,0,0.59-0.08,0.85-0.23
			c0.61-0.36,0.92-1.06,0.79-1.74c-0.03-0.2-3.64-19.65,0.88-32.07c3.75-10.33,10.15-15.74,12.53-15.74c2.38,0,8.77,5.4,12.53,15.74
			c4.5,12.42,0.91,31.88,0.86,32.07c-0.12,0.69,0.19,1.39,0.79,1.74c0.61,0.35,1.37,0.3,1.91-0.16c0.4-0.33,9.89-8.26,12.83-19.06
			c1.74-6.42,1.11-14.47,0.49-22.27c-0.41-5.29-0.81-10.3-0.43-14.43C102.02,70.17,103.33,66.17,104.84,61.55z"/>
		<polygon class="st5" points="52.15,25.38 55.13,30.83 60.58,33.81 55.13,36.79 52.15,42.24 49.17,36.79 43.72,33.81 49.17,30.83 
					"/>
		<polygon class="st5" points="63.86,41.41 65.47,44.35 68.41,45.96 65.47,47.57 63.86,50.51 62.25,47.57 59.31,45.96 62.25,44.35 
					"/>
		<polygon class="st5" points="49.99,48.19 51.6,51.13 54.53,52.73 51.6,54.34 49.99,57.28 48.38,54.34 45.44,52.73 48.38,51.13 		
			"/>
	</g>
	<g class="st0">
		<g class="st4">
			<path class="st8" d="M87.12,47.55l-0.8-3.66l-1.19,3.92c-5.12,0.62-7.36,2.34-8.22,3.28c-0.44,1.44-0.68,2.97-0.68,4.56
				c0,8.64,7.03,15.67,15.67,15.67s15.67-7.03,15.67-15.67c0-1.45-0.2-2.85-0.57-4.19C99.23,44.89,87.12,47.55,87.12,47.55z
				 M86.32,51.73c1.16,0,2.09,0.94,2.09,2.09c0,1.16-0.94,2.09-2.09,2.09c-1.16,0-2.09-0.94-2.09-2.09
				C84.23,52.67,85.16,51.73,86.32,51.73z M91.9,67.96c-4.47,0-8.18-3.38-8.91-7.52h17.82C100.08,64.58,96.37,67.96,91.9,67.96z
				 M97.65,51.73c1.16,0,2.09,0.94,2.09,2.09c0,1.16-0.94,2.09-2.09,2.09c-1.16,0-2.09-0.94-2.09-2.09
				C95.55,52.67,96.49,51.73,97.65,51.73z"/>
			<path class="st9" d="M91.9,37.59c-1.09,0-2.16,0.1-3.2,0.29c-0.06-2.36-1.01-7.06-7.5-8.81c-8.78-2.38-14.19,4.94-13.76,12.83
				c0.28,5.26-4.3,6.11-6.4,4.06c0,0,0.28,2.8,3.87,4.72c3.06,1.64,9.39,2.01,11.28-8.28c0.88-4.79,5.69-7.24,8-3.07
				c-6.11,2.9-10.35,9.13-10.35,16.33c0,9.96,8.1,18.07,18.07,18.07s18.07-8.1,18.07-18.07S101.86,37.59,91.9,37.59z M107.57,55.65
				c0,8.64-7.03,15.67-15.67,15.67s-15.67-7.03-15.67-15.67c0-1.59,0.24-3.12,0.68-4.56c0.86-0.94,3.1-2.66,8.22-3.28l1.19-3.92
				l0.8,3.66c0,0,12.11-2.66,19.88,3.92c0.49,0.41,0.96,0.86,1.41,1.36c-0.45-0.49-0.92-0.94-1.41-1.36
				C107.37,52.8,107.57,54.2,107.57,55.65z"/>
			<path class="st10" d="M91.9,67.96c4.47,0,8.18-3.38,8.91-7.52H82.99C83.72,64.58,87.43,67.96,91.9,67.96z"/>
			<circle class="st5" cx="86.32" cy="53.82" r="2.09"/>
			<circle class="st5" cx="97.65" cy="53.82" r="2.09"/>
		</g>
		<g class="st4">
			<path class="st8" d="M111.62,70.93c-5.31,6.81-17,9.34-20.97,10.03c-0.29,1.19-0.44,2.42-0.44,3.69
				c0,8.64,7.03,15.67,15.67,15.67c8.64,0,15.67-7.03,15.67-15.67c0-0.71-0.05-1.41-0.14-2.1
				C114.87,79.21,111.62,70.93,111.62,70.93z M111.54,80.73c1.16,0,2.09,0.94,2.09,2.09c0,1.16-0.94,2.09-2.09,2.09
				s-2.09-0.94-2.09-2.09C109.45,81.67,110.38,80.73,111.54,80.73z M100.21,80.73c1.16,0,2.09,0.94,2.09,2.09
				c0,1.16-0.94,2.09-2.09,2.09c-1.16,0-2.09-0.94-2.09-2.09C98.12,81.67,99.06,80.73,100.21,80.73z M105.88,96.96
				c-4.47,0-8.18-3.38-8.91-7.52h17.82C114.06,93.58,110.35,96.96,105.88,96.96z"/>
			<path class="st5" d="M114.05,68.55c0.66-1.38,2.5-2.05,2.5-2.05c-1.49-0.43-2.56-0.05-3.27,0.44c0.21-1.65-0.1-3.97-2.81-5.59
				c0,0,2.33,2.89,0.41,5.95c-1.59-0.46-3.27-0.71-5.01-0.71c-9.96,0-18.07,8.1-18.07,18.07s8.1,18.07,18.07,18.07
				c9.96,0,18.07-8.1,18.07-18.07C123.94,77.63,119.92,71.54,114.05,68.55z M105.88,100.32c-8.64,0-15.67-7.03-15.67-15.67
				c0-1.27,0.16-2.51,0.44-3.69c3.98-0.68,15.66-3.22,20.97-10.03c0,0,3.25,8.29,9.78,11.63c0.41,0.21,0.84,0.4,1.27,0.57
				c-0.44-0.17-0.86-0.36-1.27-0.57c0.09,0.69,0.14,1.39,0.14,2.1C121.55,93.29,114.52,100.32,105.88,100.32z"/>
			<path class="st5" d="M105.88,96.96c4.47,0,8.18-3.38,8.91-7.52H96.97C97.69,93.58,101.4,96.96,105.88,96.96z"/>
			<circle class="st5" cx="100.21" cy="82.82" r="2.09"/>
			<circle class="st5" cx="111.54" cy="82.82" r="2.09"/>
		</g>
	</g>
	<g class="st0">
		<g id="XMLID_58_" class="st4">
			<path id="XMLID_73_" class="st5" d="M17.36,111.88h2.13c0.3,0,0.54,0.24,0.54,0.54v12.26c0,0.31-0.25,0.57-0.57,0.57h-2.03
				c-0.29,0-0.54-0.23-0.56-0.52l0,0c-0.04-0.46-0.58-0.69-0.93-0.39c-0.98,0.87-2.42,1.29-3.53,1.31c-3.96,0.03-6.89-2.41-6.89-7.1
				c0-4.61,3.06-7.02,6.97-6.99c1.3,0,2.56,0.44,3.44,1.2c0.34,0.29,0.87,0.08,0.89-0.37l0,0C16.84,112.1,17.07,111.88,17.36,111.88
				z M8.83,118.55c0,2.74,2.03,4.29,4.45,4.04c4.7-0.47,4.69-7.6-0.01-8.06C10.86,114.3,8.83,115.81,8.83,118.55z"/>
			<path id="XMLID_71_" class="st5" d="M38.84,125.24c-0.91,0-1.65-0.74-1.65-1.65v-5.5c0-1.76-0.92-3.36-2.74-3.36
				c-1.79,0-2.85,1.6-2.85,3.36v5.5c0,0.91-0.74,1.65-1.65,1.65h0c-0.91,0-1.65-0.74-1.65-1.65v-11.22c0-0.29,0.23-0.52,0.52-0.52
				h2.09c0.26,0,0.48,0.19,0.52,0.44v0c0.06,0.41,0.55,0.58,0.86,0.31c0.79-0.7,1.89-0.97,2.84-0.97c1.28,0,2.57,0.42,3.42,1.54
				c0.31,0.4,0.9,0.4,1.25,0.02c1.07-1.15,2.36-1.51,3.77-1.51c3.79,0,5.67,2.33,5.67,6.34v5.56c0,0.91-0.74,1.65-1.65,1.65h0
				c-0.91,0-1.65-0.74-1.65-1.65v-5.56c0-1.76-0.73-3.25-2.52-3.25c-1.79,0-2.9,1.55-2.9,3.31v5.5
				C40.49,124.5,39.75,125.24,38.84,125.24L38.84,125.24z"/>
			<path id="XMLID_68_" class="st5" d="M61.66,108.11c0,2.58-3.9,2.58-3.9,0C57.76,105.53,61.66,105.53,61.66,108.11z M58.06,113.48
				v10.11c0,0.91,0.74,1.65,1.65,1.65h0c0.91,0,1.65-0.74,1.65-1.65v-10.11c0-0.91-0.74-1.65-1.65-1.65h0
				C58.8,111.82,58.06,112.56,58.06,113.48z"/>
			<path id="XMLID_66_" class="st5" d="M80.1,122.37c0.68,0.66,0.57,1.8-0.25,2.3c-1.13,0.69-2.33,0.98-3.71,0.98
				c-3.88,0-7.1-2.33-7.1-7.08s3.23-7.08,7.1-7.08c1.3,0,2.4,0.26,3.44,0.88c0.79,0.48,0.92,1.59,0.28,2.26l-0.13,0.13
				c-0.46,0.48-1.18,0.57-1.77,0.27c-0.57-0.29-1.18-0.43-1.77-0.43c-2.22,0-3.85,1.63-3.85,3.96c0,2.55,1.73,3.9,3.8,3.9
				c0.74,0,1.47-0.14,2.13-0.51c0.55-0.3,1.24-0.18,1.68,0.26L80.1,122.37z"/>
			<path id="XMLID_63_" class="st5" d="M99.34,111.88h2.13c0.3,0,0.54,0.24,0.54,0.54v12.26c0,0.31-0.25,0.57-0.57,0.57h-2.03
				c-0.29,0-0.54-0.23-0.56-0.52l0,0c-0.04-0.46-0.58-0.69-0.93-0.39c-0.98,0.87-2.42,1.29-3.53,1.31c-3.96,0.03-6.89-2.41-6.89-7.1
				c0-4.61,3.06-7.02,6.97-6.99c1.3,0,2.56,0.44,3.44,1.2c0.34,0.29,0.87,0.08,0.89-0.37v0C98.82,112.1,99.05,111.88,99.34,111.88z
				 M90.81,118.55c0,2.74,2.03,4.29,4.45,4.04c4.7-0.47,4.69-7.6-0.01-8.06C92.83,114.3,90.81,115.81,90.81,118.55z"/>
			<path id="XMLID_61_" class="st5" d="M121.75,125.24c-0.91,0-1.64-0.73-1.64-1.64v-5.35c0-1.99-1.07-3.52-3.11-3.58
				c-1.96-0.05-3.53,1.61-3.53,3.57l0,5.36c0,0.91-0.73,1.64-1.64,1.64l0,0c-0.91,0-1.64-0.73-1.64-1.64v-11.09
				c0-0.36,0.3-0.66,0.66-0.66h1.71c0.33,0,0.62,0.25,0.66,0.58v0c0.06,0.5,0.64,0.76,1.04,0.45c1.07-0.81,2.18-1.22,3.49-1.22
				c3.14,0,5.67,2.36,5.67,6.56v5.38c0,0.91-0.73,1.64-1.64,1.64H121.75z"/>
			<path id="XMLID_59_" class="st5" d="M141.26,114.5c-0.42,0.49-1.11,0.58-1.68,0.27c-0.72-0.39-1.52-0.54-2.42-0.54
				c-1.57,0-2.44,0.49-2.44,1.33c0,0.87,0.79,1.36,2.49,1.46c2.52,0.16,5.72,0.73,5.72,4.28c0,2.36-1.92,4.39-5.75,4.39
				c-1.75,0-3.51-0.24-5.17-1.48c-0.6-0.45-0.73-1.31-0.3-1.93l0.07-0.1c0.43-0.62,1.26-0.78,1.92-0.4
				c1.07,0.62,2.48,1.02,3.54,1.04c1.25,0.03,2.41-0.62,2.41-1.6c0-0.92-0.76-1.3-2.66-1.41c-2.52-0.19-5.53-1.11-5.53-4.15
				c0-3.09,3.2-4.17,5.64-4.17c1.5,0,2.74,0.21,3.89,0.84c0.74,0.4,0.93,1.38,0.39,2.01L141.26,114.5z"/>
		</g>
		<g id="LOGO_4_" class="st4">
			<g id="XMLID_56_">
				<g>
					<path class="st5" d="M40.27,54.83c1.39,0,1.4-2.17,0-2.17C38.88,52.66,38.88,54.83,40.27,54.83L40.27,54.83z"/>
				</g>
			</g>
			<g id="XMLID_54_">
				<g>
					<path class="st5" d="M100.06,68.11c1.39,0,1.4-2.17,0-2.17C98.67,65.94,98.67,68.11,100.06,68.11L100.06,68.11z"/>
				</g>
			</g>
			<g id="XMLID_52_">
				<g>
					<path class="st5" d="M89.63,85.71c3.94,3.87,9.33,6.25,14.91,6.01c5.45-0.24,10.42-2.99,13.45-7.54
						c1.54-2.3,3.18-5.57,2.64-8.42c-0.63-3.3-4.41-4.17-6.96-5.51c-3.15-1.65-3.85-4.47-4.51-7.7c-0.67-3.28-2.04-6.04-4.07-8.69
						c-2.05-2.67-4.61-5.1-7.72-6.47c-3.44-1.52-7.64-1.74-11.34-1.33c-6.93,0.76-13.21,3.9-17.84,9.11
						c-4.23,4.75-7.11,10.78-7.87,17.11c-0.71,5.91,0.68,12.79,6.18,16.07c5.76,3.43,12.58,0.31,15.9-4.96
						c1.42-2.26,2-4.73,2.43-7.32c0.46-2.77,0.82-5.55,1.12-8.34c1.24-11.69,1.44-25.2-5.04-35.52c-6.27-10-18.53-13.58-29.74-11.24
						c-5.42,1.13-10.71,3.76-14.39,7.98c-4.95,5.68-5.33,12.82-5.71,19.99c-0.1,1.85-0.18,3.74-0.49,5.58
						c-0.26,1.53-0.8,3.02-1.29,4.49c-0.51,1.56-1.03,3.13-1.28,4.76c-0.19,1.2-0.36,2.71,0.27,3.81c0.59,1.02,1.73,1.62,2.71,2.2
						c1.09,0.65,1.58,0.97,1.91,2.19c0.58,2.1,1.01,4.24,1.45,6.38c0.84,3.98,1.6,8.32,3.82,11.81c2.13,3.35,5.52,4.73,9.4,3.99
						c2.75-0.52,5.34-1.87,7.72-3.29c1.2-0.72,0.11-2.59-1.09-1.87c-3.18,1.91-8.06,4.63-11.77,2.49c-2.84-1.64-3.94-5.37-4.74-8.32
						c-1.04-3.85-1.62-7.8-2.66-11.64c-0.25-0.91-0.47-1.74-1.19-2.41c-0.8-0.73-1.81-1.18-2.71-1.77c-1.08-0.7-1.18-1.36-1.06-2.62
						c0.15-1.57,0.67-3.11,1.15-4.6c0.93-2.85,1.62-5.5,1.86-8.5c0.27-3.38,0.26-6.78,0.69-10.14c0.78-6.07,3.67-11.33,8.84-14.71
						c8.51-5.57,20.83-5.9,29.51-0.5c9.55,5.95,12.04,18.19,12.28,28.64c0.13,5.53-0.32,11.06-1.05,16.53
						c-0.65,4.88-1.15,9.94-4.97,13.49c-2.19,2.03-5.21,3.18-8.2,2.57c-2.78-0.57-4.93-2.55-6.26-4.99
						c-2.74-5.08-1.72-11.63,0.29-16.77c2.13-5.45,5.94-10.47,10.87-13.66c5.74-3.72,13.85-5.24,20.43-3.07
						c2.97,0.98,5.45,3.21,7.4,5.59c2.02,2.46,3.45,5.11,4.1,8.23c0.54,2.56,0.97,5.13,2.75,7.16c2.01,2.29,4.99,2.77,7.4,4.43
						c2.73,1.88,0.79,5.63-0.52,7.86c-1.27,2.15-3.02,3.99-5.18,5.27c-4.22,2.5-9.43,2.59-13.94,0.84c-2.39-0.93-4.53-2.4-6.36-4.19
						C90.17,83.2,88.64,84.73,89.63,85.71L89.63,85.71z"/>
				</g>
			</g>
		</g>
	</g>
	<g class="st0">
		<path class="st11" d="M50.76,67.58c-0.24-0.48-0.46-0.97-0.68-1.47C50.3,66.61,50.52,67.1,50.76,67.58z"/>
		<path class="st11" d="M97.1,66.14c-0.21,0.49-0.43,0.97-0.66,1.44C96.67,67.11,96.89,66.63,97.1,66.14z"/>
		<path class="st11" d="M91.4,74.96c-0.4,0.43-0.81,0.85-1.24,1.24C90.58,75.81,90.99,75.39,91.4,74.96z"/>
		<path class="st11" d="M96.19,68.08c-0.28,0.54-0.56,1.07-0.87,1.59C95.63,69.16,95.92,68.62,96.19,68.08z"/>
		<path class="st11" d="M61.83,79.8c-0.44-0.26-0.87-0.53-1.3-0.81C60.96,79.28,61.39,79.55,61.83,79.8z"/>
		<path class="st11" d="M51.88,69.68c-0.31-0.52-0.6-1.06-0.88-1.61C51.28,68.62,51.57,69.15,51.88,69.68z"/>
		<path class="st11" d="M86.66,79c-0.42,0.28-0.85,0.55-1.28,0.8C85.81,79.55,86.24,79.28,86.66,79z"/>
		<path class="st11" d="M49.95,65.8c-0.24-0.57-0.46-1.15-0.66-1.74C49.49,64.65,49.71,65.23,49.95,65.8z"/>
		<path class="st11" d="M97.91,64.07c-0.21,0.59-0.42,1.17-0.66,1.74C97.49,65.24,97.7,64.66,97.91,64.07z"/>
		<path class="st11" d="M89.84,76.5c-0.37,0.34-0.74,0.66-1.12,0.97C89.1,77.16,89.48,76.83,89.84,76.5z"/>
		<path class="st11" d="M92.67,73.49c-0.31,0.38-0.64,0.76-0.97,1.13C92.04,74.25,92.36,73.88,92.67,73.49z"/>
		<path class="st11" d="M55.5,74.63c-0.34-0.38-0.68-0.76-1-1.16C54.83,73.86,55.16,74.25,55.5,74.63z"/>
		<path class="st11" d="M95.11,70.02c-0.26,0.43-0.54,0.86-0.82,1.28C94.58,70.88,94.85,70.46,95.11,70.02z"/>
		<path class="st11" d="M88.41,77.73c-0.46,0.36-0.92,0.71-1.4,1.04C87.49,78.43,87.95,78.09,88.41,77.73z"/>
		<path class="st11" d="M58.49,77.48c-0.39-0.32-0.77-0.65-1.15-0.99C57.72,76.83,58.1,77.16,58.49,77.48z"/>
		<path class="st11" d="M60.19,78.76c-0.48-0.33-0.95-0.68-1.41-1.04C59.24,78.09,59.71,78.43,60.19,78.76z"/>
		<path class="st11" d="M57.05,76.21c-0.43-0.4-0.85-0.82-1.25-1.26C56.2,75.39,56.62,75.81,57.05,76.21z"/>
		<path class="st11" d="M54.26,73.16c-0.37-0.47-0.73-0.95-1.07-1.45C53.53,72.21,53.89,72.7,54.26,73.16z"/>
		<path class="st11" d="M52.91,71.31c-0.29-0.43-0.57-0.87-0.84-1.32C52.34,70.44,52.62,70.88,52.91,71.31z"/>
		<path class="st11" d="M94.01,71.73c-0.34,0.49-0.69,0.97-1.06,1.43C93.31,72.7,93.66,72.22,94.01,71.73z"/>
		<path class="st1" d="M73.6,83.04c4.22,0,8.2-1.16,11.74-3.22c0.01-0.01,0.03-0.02,0.04-0.02c0.44-0.25,0.86-0.52,1.28-0.8
			c0.12-0.08,0.24-0.16,0.36-0.24c0.48-0.33,0.94-0.67,1.4-1.04c0.1-0.08,0.2-0.17,0.31-0.26c0.38-0.31,0.76-0.64,1.12-0.97
			c0.11-0.1,0.21-0.19,0.32-0.29c0.42-0.4,0.83-0.82,1.24-1.24c0.11-0.11,0.21-0.23,0.31-0.34c0.33-0.37,0.65-0.74,0.97-1.13
			c0.09-0.11,0.18-0.22,0.27-0.33c0.37-0.46,0.72-0.94,1.06-1.43c0.1-0.14,0.19-0.28,0.29-0.43c0.28-0.42,0.55-0.85,0.82-1.28
			c0.07-0.12,0.14-0.23,0.21-0.35c0.3-0.52,0.59-1.05,0.87-1.59c0.08-0.17,0.17-0.34,0.25-0.5c0.23-0.47,0.45-0.95,0.66-1.44
			c0.05-0.11,0.1-0.22,0.15-0.34c0.24-0.57,0.45-1.15,0.66-1.74c0.03-0.09,0.07-0.17,0.1-0.26c0-0.02,0-0.03,0.01-0.05
			c0.55-2.62-10.02,0.65-24.42,0.65c-14.33,0-25.33-3.99-24.44-0.73c0.01,0.04,0.02,0.07,0.03,0.12c0.03,0.09,0.07,0.17,0.1,0.26
			c0.21,0.59,0.43,1.17,0.66,1.74c0.04,0.1,0.09,0.2,0.13,0.31c0.21,0.5,0.44,0.99,0.68,1.47c0.08,0.16,0.16,0.33,0.24,0.49
			c0.28,0.55,0.57,1.08,0.88,1.61c0.06,0.11,0.13,0.21,0.19,0.31c0.27,0.45,0.55,0.89,0.84,1.32c0.09,0.14,0.18,0.27,0.27,0.4
			c0.34,0.5,0.7,0.98,1.07,1.45c0.08,0.1,0.16,0.2,0.24,0.3c0.32,0.4,0.66,0.79,1,1.16c0.1,0.11,0.19,0.22,0.29,0.33
			c0.4,0.43,0.82,0.85,1.25,1.26c0.1,0.09,0.2,0.18,0.3,0.27c0.38,0.34,0.76,0.67,1.15,0.99c0.1,0.08,0.19,0.16,0.29,0.24
			c0.46,0.36,0.93,0.71,1.41,1.04c0.11,0.08,0.23,0.15,0.34,0.23c0.42,0.28,0.86,0.56,1.3,0.81c0.02,0.01,0.03,0.02,0.05,0.03
			C65.41,81.88,69.39,83.04,73.6,83.04z"/>
		<path class="st1" d="M83.83,37.73c-0.8,2.52-2.5,4.62-4.72,5.96c7.11,4.59,15.13,8.1,20.75,8.76c0.81,0.09,1.57,0.14,2.27,0.11
			c0-4.35-1.55-10.79-1.33-10.01C99.08,41.7,93.07,39.01,83.83,37.73z"/>
		<g class="st4">
			<path class="st12" d="M73.6,31.67c-1.56,0-2.82,1.26-2.82,2.82c0,1.56,1.26,2.82,2.82,2.82c1.56,0,2.82-1.26,2.82-2.82
				C76.42,32.93,75.16,31.67,73.6,31.67z"/>
			<path class="st5" d="M49.93,34.09c0.03-0.05,0.06-0.1,0.1-0.15c0,0-0.01,0-0.02,0C49.98,33.99,49.96,34.05,49.93,34.09z"/>
			<path class="st5" d="M97.19,33.96C92.06,25.2,83.41,19.43,73.6,19.43c-9.8,0-18.44,5.76-23.58,14.51
				c3.36-1.15,7.89-2.35,13.48-3.06c-0.4,1.13-0.63,2.34-0.63,3.61c0,1.05,0.16,2.07,0.44,3.03c-0.05,0.08-0.09,0.17-0.14,0.26
				c-10.6,1.54-16.57,4.95-16.65,4.99c-0.06,0.03-0.12,0.05-0.18,0.08c-0.81,3.07-1.27,6.32-1.27,9.7c0.7,0.18,1.47,0.2,2.27,0.08
				c4.86-0.74,11.25-6.8,15.97-15.09c1.32,4.43,5.42,7.67,10.28,7.67c2.01,0,3.89-0.57,5.5-1.53c2.22-1.33,3.93-3.44,4.72-5.96
				c0.32-1.02,0.5-2.11,0.5-3.24c0-1.27-0.23-2.48-0.64-3.61c5.48,0.68,10,1.83,13.42,2.94C97.14,33.86,97.16,33.91,97.19,33.96z
				 M73.6,37.31c-1.56,0-2.82-1.26-2.82-2.82c0-1.56,1.26-2.82,2.82-2.82c1.56,0,2.82,1.26,2.82,2.82
				C76.42,36.05,75.16,37.31,73.6,37.31z"/>
		</g>
		<path class="st13" d="M76.42,34.49c0-1.56-1.26-2.82-2.82-2.82c-1.56,0-2.82,1.26-2.82,2.82c0,1.56,1.26,2.82,2.82,2.82
			C75.16,37.31,76.42,36.05,76.42,34.49z"/>
		<polygon class="st14" points="88.09,91.71 88.82,91.88 88.09,91.7 		"/>
		<polygon class="st15" points="88.09,91.71 88.09,91.7 88.09,91.7 88.08,91.7 		"/>
		<g class="st4">
			<path class="st5" d="M125.23,100.59l0.02-0.08l-36.51-8.85l-0.73-0.18l-0.01,0l0,0l0,0l-14.48,4.34l-14.45-4.34l-0.01-0.01
				l-0.01,0l-0.01,0l-0.01,0l-0.24,0.06l-37,8.97l0.02,0.08l-5.4,27.03h12.77H73.5h44.36h12.77L125.23,100.59z M70.22,108.87
				L59.15,91.6l11.06,12.02l0.59-1.35l1.44,1.44L70.22,108.87z M76.26,102.28l0.59,1.35l11.13-12.1l-11.14,17.35l0,0l-2.03-5.16
				L76.26,102.28L76.26,102.28z"/>
		</g>
	</g>
</g>
<g id="Capa_2" class="st0">
	<g class="st4">
		<g>
			<path class="st5" d="M86.23,70.16l-8.26-8.26c-0.29-0.29-0.76-0.29-1.05,0l-51.93,51.92c-0.29,0.29-0.29,0.76,0,1.05l8.26,8.26
				c0.29,0.29,0.76,0.29,1.05,0l51.93-51.92C86.51,70.92,86.51,70.45,86.23,70.16z"/>
			<path class="st5" d="M78.95,61.02l8.16,8.16c0.29,0.29,0.76,0.29,1.05,0l2.92-2.92c0.29-0.29,0.29-0.76,0-1.05l-8.16-8.16
				c-0.29-0.29-0.76-0.29-1.05,0l-2.92,2.92C78.65,60.26,78.66,60.73,78.95,61.02z"/>
			<path class="st5" d="M83.77,56.19l8.16,8.16c0.29,0.29,0.76,0.29,1.05,0l2.92-2.92c0.29-0.29,0.29-0.76,0-1.05l-8.16-8.16
				c-0.29-0.29-0.76-0.29-1.05,0l-2.92,2.92C83.48,55.44,83.48,55.91,83.77,56.19z"/>
			<path class="st5" d="M122.28,24.44c0-0.41-0.33-0.74-0.74-0.74h-2.56c-0.2,0-0.38,0.08-0.52,0.22c-0.14,0.14-0.22,0.33-0.22,0.52
				v8.36l-5.36,0c-0.2,0-0.38,0.08-0.52,0.22L91.62,53.75c-0.29,0.29-0.29,0.76,0,1.05l1.81,1.81c0.29,0.29,0.76,0.29,1.05,0
				l19.76-19.76h7.3c0.41,0,0.74-0.33,0.74-0.74L122.28,24.44z"/>
		</g>
		<g>
			<path class="st5" d="M72.11,63.85l-8.26,8.26c-0.29,0.29-0.29,0.76,0,1.05l50.65,50.65c0.29,0.29,0.76,0.29,1.05,0l8.26-8.26
				c0.29-0.29,0.29-0.76,0-1.05L73.15,63.85C72.87,63.56,72.4,63.56,72.11,63.85z"/>
			<path class="st5" d="M67.16,58.99l-8.16,8.16c-0.29,0.29-0.29,0.76,0,1.05l2.92,2.92c0.29,0.29,0.76,0.29,1.05,0l8.16-8.16
				c0.29-0.29,0.29-0.76,0-1.05l-2.92-2.92C67.91,58.7,67.44,58.7,67.16,58.99z"/>
			<path class="st5" d="M63.38,54.17c-0.29-0.29-0.76-0.29-1.05,0l-8.16,8.16c-0.29,0.29-0.29,0.76,0,1.05l2.92,2.92
				c0.29,0.29,0.76,0.29,1.05,0l8.16-8.16c0.29-0.29,0.29-0.76,0-1.05L63.38,54.17z"/>
			<path class="st5" d="M36.89,39.52l18.29,18.29c0.29,0.29,0.76,0.29,1.05,0l1.59-1.59c0.29-0.29,0.29-0.76,0-1.05L39.52,36.89
				c2.28-3.51,1.82-8.23-1.17-11.23c-3.5-3.5-9.19-3.5-12.69,0c-3.5,3.5-3.5,9.19,0,12.69C28.66,41.34,33.38,41.8,36.89,39.52z"/>
			<g>
				<g>
					<path class="st8" d="M36.31,27.7c2.38,2.38,2.38,6.24,0,8.62c-2.38,2.38-6.24,2.38-8.62,0c-2.38-2.38-2.38-6.24,0-8.62
						C30.07,25.32,33.93,25.32,36.31,27.7z"/>
				</g>
			</g>
		</g>
	</g>
</g>
<g id="Capa_3">
	<g>
		<path class="st5" d="M68.37,124.97c-0.77-0.07-1.55-0.19-2.32-0.21c-7.6-0.22-15.16-0.83-22.65-2.11
			c-6.25-1.07-12.49-2.28-18.69-3.63c-2.54-0.55-4.84-1.78-5.61-4.65c-0.1-0.37-0.17-0.77-0.18-1.15c-0.01-4-0.06-8,0.02-12
			c0.06-3.03,1.36-5.31,4.34-6.43c0.29-0.11,0.56-0.69,0.57-1.06c0.05-2.74,0-5.47,0.04-8.21c0.01-0.76,0.13-1.57,0.41-2.27
			c0.43-1.06,1.3-1.61,2.5-1.59c1.73,0.03,3.46-0.12,5.18,0.03c3.71,0.33,7.42-0.31,11.11,0.01c0.84,0.07,1.65,0.53,2.48,0.81
			c0.24,0.09,0.48,0.29,0.72,0.29c3.52-0.05,7.03-0.13,10.55-0.19c0.23,0,0.52-0.02,0.68,0.11c1.13,0.88,2.44,0.64,3.71,0.64
			c3.57,0.01,7.14,0,10.71,0c5.13,0,10.26,0.02,15.38-0.01c0.6,0,1.19-0.26,1.78-0.4c0.49-0.12,0.97-0.34,1.46-0.35
			c2.94-0.03,5.89-0.08,8.83,0.02c1.09,0.04,2.06,0.18,2.98-0.66c0.33-0.31,1.03-0.28,1.57-0.29c2.2-0.03,4.41-0.19,6.59,0.03
			c3.1,0.31,6.16-0.23,9.24-0.06c2.27,0.12,3.4,1.07,3.44,3.36c0.05,2.86,0.03,5.72,0.01,8.59c-0.01,0.7,0.12,1.02,0.9,1.32
			c2.53,0.99,3.92,3.04,4.02,5.69c0.15,4.27,0.08,8.55,0.03,12.82c-0.02,2.33-2,4.68-4.61,5.29c-4.51,1.06-9.03,2.09-13.59,2.92
			c-4.62,0.84-9.28,1.49-13.94,2.08c-3.06,0.39-6.15,0.54-9.22,0.76c-2.61,0.19-5.23,0.32-7.84,0.48
			C75.44,124.97,71.91,124.97,68.37,124.97z M33.39,99.77c-1.66,1.51-3.63,2.22-5.83,1.9c-2.56-0.38-3.2-2.42-3.59-4.68
			c-2.07,0.86-2.72,2.51-2.76,4.44c-0.07,3.53-0.01,7.06-0.07,10.59c-0.03,1.74,0.45,3.22,2,4.09c0.93,0.52,2,0.85,3.06,1.05
			c6.21,1.18,12.4,2.49,18.64,3.38c6,0.85,12.05,1.51,18.11,1.78c6.73,0.3,13.49,0.26,20.23,0.02c5.62-0.2,11.27-0.62,16.83-1.45
			c7.45-1.12,14.82-2.72,22.22-4.15c2.59-0.5,3.71-1.95,3.75-4.59c0.01-1.22,0.02-2.43,0-3.65c-0.03-2.66,0-5.33-0.16-7.99
			c-0.1-1.79-1.26-3.07-2.7-3.39c-0.47,2.91-1.63,4.39-3.59,4.58c-2.2,0.21-4.14-0.42-5.78-1.9c-2.63,3.92-4.82,4.1-11.23,0.95
			c-0.99,2.79-2.85,4.5-5.91,4.71c-2.86,0.19-5.37-0.64-7.5-2.66c-1.59,3.14-3.95,5-7.38,5.24c-3.45,0.23-6.08-1.32-8.1-4.06
			c-3.36,5.19-11.68,6.07-15.62-1.2c-2.09,2.05-4.62,2.87-7.49,2.68c-3.08-0.2-4.98-1.93-5.94-4.8
			C40.52,103.62,35.28,103.97,33.39,99.77z M59.87,85.73c0,4.74-0.07,9.35,0.02,13.96c0.07,3.55,3.03,6.08,6.75,5.99
			c3.16-0.07,5.73-2.85,5.74-6.23c0.01-4.19,0-8.38,0-12.57c0-0.38-0.04-0.75-0.06-1.15C68.14,85.73,64.08,85.73,59.87,85.73z
			 M74.77,85.75c0,4.88,0,9.69,0,14.49c0,0.08,0.04,0.15,0.06,0.23c0.78,3.5,3.71,5.6,7.26,5.2c2.98-0.33,5.2-3.09,5.21-6.51
			c0.01-3.91-0.02-7.83-0.03-11.74c0-0.53,0-1.07,0-1.67C83.08,85.75,79.01,85.75,74.77,85.75z M100.43,92.55c0.01,0,0.02,0,0.02,0
			c0-1.99,0.01-3.99,0-5.98c-0.01-1.69-0.06-1.74-1.7-1.74c-2.39-0.01-4.78,0-7.17,0.02c-1.85,0.01-1.96,0.14-1.96,2.03
			c0,3.44,0,6.89,0.01,10.33c0.01,3.21,1.43,5.11,4.57,5.73c3.35,0.67,6.01-0.19,6.22-4.52C100.51,96.46,100.43,94.5,100.43,92.55z
			 M46.65,92.54c0,1.92-0.09,3.84,0.02,5.76c0.21,3.7,1.85,5.06,5.55,4.79c2.98-0.22,5.2-2.4,5.25-5.3
			c0.06-3.84,0.01-7.68,0.02-11.52c0-0.97-0.42-1.44-1.41-1.44c-2.71,0.01-5.41,0.01-8.12,0c-0.94,0-1.33,0.42-1.32,1.36
			C46.67,88.31,46.65,90.43,46.65,92.54z M44.29,90.6c0,0,0.01,0,0.01,0c0-1.8-0.01-3.6,0-5.4c0.01-0.82-0.3-1.2-1.19-1.18
			c-2.11,0.04-4.23,0.08-6.35-0.02c-1.17-0.05-1.49,0.36-1.48,1.46c0.02,3.52-0.17,7.05-0.01,10.56c0.15,3.33,0.45,4.81,4.02,4.48
			c2.92-0.27,4.97-2.42,4.99-5.32C44.31,93.66,44.29,92.13,44.29,90.6z M111.7,91.32c0.03,0,0.06,0,0.09,0
			c0-1.92-0.05-3.84,0.02-5.75c0.04-1.13-0.26-1.62-1.51-1.56c-1.99,0.1-4,0.1-5.99,0c-1.25-0.06-1.54,0.45-1.52,1.57
			c0.05,3.13,0.01,6.26,0.02,9.39c0.01,3.33,2.1,5.39,5.47,5.56c2.1,0.11,3.17-0.3,3.38-3.11C111.82,95.39,111.7,93.35,111.7,91.32z
			 M114.32,84.03c-0.08,0.31-0.15,0.46-0.15,0.62c-0.02,3.57-0.13,7.14,0.01,10.7c0.09,2.32,1.8,3.82,4.02,3.99
			c1.65,0.12,2.34-0.26,2.41-1.94c0.19-4.22,0.2-8.45,0.22-12.68c0-0.23-0.45-0.65-0.7-0.65C118.22,84.01,116.3,84.03,114.32,84.03z
			 M32.83,84.03c-1.83,0-3.58,0.05-5.33-0.02c-0.96-0.04-1.3,0.24-1.28,1.24c0.06,3.52,0,7.04,0.05,10.57
			c0.01,0.8,0.24,1.61,0.43,2.4c0.2,0.86,0.81,1.16,1.66,1.17c2.65,0.04,4.59-1.77,4.63-4.52c0.05-3.21,0.01-6.42-0.01-9.62
			C32.97,84.87,32.89,84.49,32.83,84.03z"/>
		<path class="st5" d="M22.21,69.72c-1.6,0.15-3.03,0.41-4.47,0.4c-2.9-0.02-4.67-1.36-4.68-4.56c-0.03-7.72-0.15-15.45,0.04-23.17
			c0.13-5.17,3.55-10.21,9.56-12.25c6.61-2.24,13.37-3.94,20.24-5.15c4.76-0.84,9.55-1.6,14.37-2.07c7.64-0.76,15.32-1.1,23-0.62
			c4.45,0.28,8.9,0.57,13.33,1.05c3.64,0.4,7.3,0.89,10.87,1.69c6.27,1.4,12.49,3.02,18.7,4.65c4.11,1.08,7.3,3.47,9.34,7.26
			c0.99,1.84,1.55,3.82,1.55,5.92c0.01,7.61,0,15.21,0,22.82c0,2.67-1.68,4.43-4.35,4.42c-1.59-0.01-3.17-0.23-4.76-0.36
			c-1.05,4.42-4.89,5.1-8.56,4.7c-1.78-0.19-3.51-0.83-5.36-1.29c-0.91,1.71-2.71,2.3-4.68,2.36c-2.9,0.09-5.81,0.09-8.71-0.01
			c-1.14-0.04-2.26-0.44-3.54-0.71c-1.33,2.32-3.73,2.92-6.38,2.93c-3.17,0.01-6.33,0-9.5-0.07c-1.77-0.04-3.34-0.7-4.69-1.98
			c-1.45,1.58-3.33,2.03-5.25,2.04c-3.75,0.02-7.51,0.01-11.24-0.31c-2.23-0.19-2.81-0.88-4.17-2.82c-1.84,1.12-3.93,0.98-5.98,0.96
			c-2.39-0.02-4.77-0.07-7.15-0.22c-1.64-0.1-2.99-0.87-3.63-2.16c-1.94,0.47-3.72,1.15-5.53,1.28c-1.67,0.12-3.43-0.14-5.05-0.61
			C23.59,73.3,22.59,71.66,22.21,69.72z M131.73,49.89c0-2.25,0.01-4.4,0-6.55c-0.03-4.84-2.34-8.33-6.61-10.37
			c-2.3-1.1-4.84-1.73-7.31-2.44c-12.16-3.47-24.57-5.45-37.2-5.97c-10.43-0.43-20.83,0.06-31.16,1.62
			c-8.39,1.27-16.63,3.18-24.74,5.66c-4.5,1.37-7.96,3.99-8.96,8.69c-0.64,3-0.37,6.19-0.52,9.53c1.66-0.88,3.04-0.94,4.28-0.04
			c1.14,0.83,2.16,1.83,3.18,2.72c0.48-1.07,0.92-2.23,1.52-3.31c0.98-1.77,2.6-2.4,4.62-2.16c2.3,0.28,3.89,1.67,5.36,3.22
			c0.96,1.01,1.72,2.2,2.57,3.31c0.42-0.66,0.83-1.37,1.3-2.05c2.84-4.08,7.05-4.94,11.08-2.04c1.6,1.15,2.86,2.78,4.29,4.2
			c2-3.94,4.92-7.07,9.8-7.25c4.89-0.18,7.97,2.8,10.3,6.83c2.42-4.08,5.51-7.11,10.48-6.83c4.85,0.27,7.7,3.47,9.76,7.67
			c0.31-0.36,0.53-0.54,0.63-0.76c0.71-1.67,2.17-2.6,3.49-3.71c3.21-2.72,7.96-2.2,10.4,0.97c0.74,0.96,1.42,1.97,1.96,2.71
			c1.51-1.59,2.92-3.33,4.59-4.78c3.19-2.77,6.64-2.13,8.48,1.43c0.34,0.65,0.56,1.36,0.83,2.05c0.09,0.22,0.16,0.45,0.26,0.74
			C127.24,49.54,128.76,48.88,131.73,49.89z M92.38,65.03c0-1.33-0.07-2.67,0.01-3.99c0.16-2.58-0.27-4.98-1.4-7.36
			c-1.39-2.94-5.82-5.33-8.97-4.55c-3.9,0.96-7.27,5.26-7.29,9.34c-0.02,4.43-0.01,8.85,0,13.28c0,2.26,0.78,3.42,3.02,3.53
			c3.85,0.18,7.73,0.15,11.58,0.01c2.07-0.07,3.03-1.34,3.04-3.43C92.39,69.58,92.38,67.3,92.38,65.03z M72.38,65.11
			c0-2-0.04-4,0.01-6c0.07-3.1-1.19-5.63-3.33-7.74c-2.67-2.64-6.01-3.21-9.01-1.44c-3.29,1.94-5.17,4.9-5.28,8.74
			c-0.13,4.35-0.03,8.7-0.03,13.06c0,2.18,0.78,3.41,2.93,3.52c3.94,0.21,7.9,0.2,11.84,0c2.09-0.11,2.87-1.33,2.87-3.44
			C72.38,69.58,72.38,67.34,72.38,65.11z M109.31,64.95C109.31,64.95,109.31,64.95,109.31,64.95c-0.01-1.8,0.01-3.6-0.01-5.41
			c-0.02-2.46-0.79-4.69-2.23-6.67c-1.66-2.27-4.01-3.31-6.12-2.38c-2.68,1.18-4.54,3.33-5.72,6.01c-0.68,1.56-0.73,3.2-0.65,4.91
			c0.14,3.09,0.03,6.19,0.1,9.28c0.04,1.8,0.48,2.41,2.24,2.47c3.43,0.12,6.87,0.1,10.3-0.01c1.45-0.04,2.08-0.93,2.09-2.45
			C109.33,68.79,109.31,66.87,109.31,64.95z M37.93,64.63c-0.01,0-0.02,0-0.03,0c0,1.96,0,3.92,0,5.88c0,1.81,0.44,2.55,2.25,2.63
			c3.4,0.15,6.81,0.11,10.21-0.01c1.44-0.05,1.99-0.88,2-2.37c0.01-3.56-0.01-7.13,0.01-10.69c0.03-4.16-2.13-7.01-5.52-9.03
			c-2.08-1.23-4.35-0.78-5.97,0.98c-1.93,2.1-2.97,4.57-2.96,7.45C37.94,61.18,37.93,62.9,37.93,64.63z M24.44,62.96
			c0.04,0,0.08,0,0.12,0c0,2.07-0.02,4.15,0.01,6.22c0.02,1.38,0.78,2.25,2.07,2.67c2.04,0.67,4.09,0.56,6.11-0.04
			c2.21-0.66,2.83-1.55,2.84-3.83c0-2.97-0.17-5.96,0.05-8.92c0.23-3.29-3.37-8.13-6.2-9.32c-1.5-0.63-2.36-0.32-3.3,1.01
			c-1.19,1.7-1.42,3.71-1.64,5.64C24.26,58.56,24.44,60.77,24.44,62.96z M122.58,62.56c-0.02,0-0.04,0-0.06,0
			c0-2.07,0.09-4.15-0.03-6.22c-0.12-2.11-0.51-4.19-1.82-5.97c-0.63-0.86-1.46-1.13-2.48-0.81c-3.08,0.97-6.64,5.63-6.67,8.83
			c-0.04,3.33-0.02,6.66-0.01,9.99c0.01,1.72,0.65,2.8,2.34,3.21c1.64,0.4,3.39,0.68,5.07,0.59c2.74-0.15,3.67-1.37,3.66-4.1
			C122.57,66.24,122.58,64.4,122.58,62.56z M22.18,61.97C22.19,61.97,22.19,61.97,22.18,61.97c0.01-0.55-0.05-1.1,0.02-1.64
			c0.36-2.78-0.49-5.16-2.46-7.1c-0.66-0.65-1.69-1.47-2.39-1.34c-0.62,0.12-1.26,1.39-1.46,2.25c-0.96,4.07-0.63,8.21-0.42,12.33
			c0.02,0.46,0.89,1.19,1.43,1.25c1.22,0.13,2.49-0.02,3.72-0.18c1.06-0.14,1.63-0.77,1.57-1.93C22.13,64.4,22.18,63.18,22.18,61.97
			z M131.73,61.22c-0.01,0-0.01,0-0.02,0c0-1.49,0.15-3-0.04-4.46c-0.2-1.48-0.68-2.94-1.15-4.36c-0.26-0.8-0.96-0.87-1.63-0.43
			c-2.19,1.46-3.71,3.45-3.92,6.08c-0.2,2.61-0.1,5.24,0.01,7.86c0.02,0.51,0.6,1.33,1.04,1.43c1.39,0.29,2.85,0.43,4.28,0.39
			c0.86-0.03,1.45-0.71,1.44-1.7C131.72,64.43,131.73,62.82,131.73,61.22z"/>
	</g>
</g>
</svg>
